<svg width="28" height="28" viewBox="0 0 28 28" fill="none" xmlns="http://www.w3.org/2000/svg">
<path fill-rule="evenodd" clip-rule="evenodd" d="M12 22C17.5228 22 22 17.5228 22 12C22 6.47715 17.5228 2 12 2C6.47715 2 2 6.47715 2 12C2 17.5228 6.47715 22 12 22ZM13.4692 10.4727V13.1574C13.4692 13.2415 13.426 13.3199 13.3547 13.365L12.0329 14.2013C11.9507 14.2533 11.8433 14.1945 11.8433 14.0975V9.35529C11.8433 9.27117 11.8001 9.19288 11.7289 9.14775L8.31509 6.9853C8.27455 6.95962 8.25 6.91508 8.25 6.86722C8.25 6.18436 9.00632 5.77025 9.58484 6.13635L17.0202 10.8416C17.0966 10.89 17.0966 11.0011 17.0201 11.0493L16.0079 11.6883C15.9271 11.7392 15.8241 11.7392 15.7434 11.6881L13.6588 10.3689C13.5766 10.3169 13.4692 10.3757 13.4692 10.4727ZM10.2551 15.7265C10.0908 15.8306 9.87593 15.713 9.87593 15.519V8.5291C9.87593 8.44493 9.83273 8.3666 9.76141 8.32149L8.43957 7.48516C8.35741 7.43317 8.25 7.49199 8.25 7.58896V17.2148C8.25 17.8329 8.93448 18.2079 9.45829 17.8767L17.575 12.745C18.1419 12.3866 18.1416 11.5623 17.5745 11.2043C17.52 11.1699 17.4505 11.17 17.3961 11.2044L10.2551 15.7265Z" fill="#4F7471"/>
</svg>
