<svg width="32" height="32" viewBox="0 0 32 32" fill="none" xmlns="http://www.w3.org/2000/svg">
<mask id="mask0_452_480" style="mask-type:luminance" maskUnits="userSpaceOnUse" x="0" y="0" width="32" height="32">
<path d="M32 0H0V32H32V0Z" fill="white"/>
</mask>
<g mask="url(#mask0_452_480)">
<path d="M29.3333 16.0001C29.3333 8.63627 23.3638 2.66675 16 2.66675C8.63623 2.66675 2.66667 8.63627 2.66667 16.0001C2.66667 22.6551 7.54248 28.1712 13.9167 29.1714V19.8543H10.5313V16.0001H13.9167V13.0626C13.9167 9.72094 15.9072 7.87508 18.9529 7.87508C20.4117 7.87508 21.9375 8.1355 21.9375 8.1355V11.4168H20.2562C18.5999 11.4168 18.0833 12.4446 18.0833 13.4989V16.0001H21.7812L21.1901 19.8543H18.0833V29.1714C24.4575 28.1712 29.3333 22.6551 29.3333 16.0001Z" fill="#353535"/>
<path d="M21.1901 19.8542L21.7813 16H18.0834V13.4989C18.0834 12.4444 18.5999 11.4167 20.2563 11.4167H21.9375V8.13542C21.9375 8.13542 20.4117 7.875 18.9529 7.875C15.9073 7.875 13.9167 9.72083 13.9167 13.0625V16H10.5312V19.8542H13.9167V29.1713C14.5955 29.2779 15.2913 29.3333 16 29.3333C16.7088 29.3333 17.4045 29.2779 18.0834 29.1713V19.8542H21.1901Z" fill="white"/>
</g>
</svg>
