<svg width="32" height="32" viewBox="0 0 32 32" fill="none" xmlns="http://www.w3.org/2000/svg">
<circle cx="16" cy="16" r="13" fill="#353535"/>
<path d="M17.959 17.5431V13.9636C17.959 13.8343 18.1022 13.7559 18.2117 13.8252L20.9912 15.5842C21.0988 15.6523 21.2362 15.6523 21.3438 15.5844L22.6935 14.7324C22.7954 14.6681 22.7955 14.5199 22.6936 14.4555L12.7798 8.1818C12.0084 7.69367 11 8.24581 11 9.15629C11 9.22011 11.0327 9.2795 11.0868 9.31374L15.6385 12.197C15.7335 12.2572 15.7911 12.3616 15.7911 12.4737V18.7967C15.7911 18.926 15.9343 19.0044 16.0438 18.9351L17.8063 17.82C17.9014 17.7598 17.959 17.6554 17.959 17.5431Z" fill="white"/>
<path d="M13.1679 20.692C13.1679 20.9506 13.4544 21.1075 13.6735 20.9687L23.1948 14.9393C23.2674 14.8933 23.36 14.8933 23.4326 14.9391C24.1888 15.4164 24.1892 16.5154 23.4334 16.9933L12.6111 23.8356C11.9126 24.2772 11 23.7773 11 22.9531V10.1186C11 9.98931 11.1432 9.9109 11.2528 9.98021L13.0152 11.0953C13.1103 11.1555 13.1679 11.2599 13.1679 11.3721V20.692Z" fill="white"/>
</svg>
