<svg width="32" height="32" viewBox="0 0 32 32" fill="none" xmlns="http://www.w3.org/2000/svg">
<mask id="mask0_452_501" style="mask-type:luminance" maskUnits="userSpaceOnUse" x="2" y="2" width="28" height="28">
<path d="M29.3333 2.66675H2.66666V29.3334H29.3333V2.66675Z" fill="white"/>
</mask>
<g mask="url(#mask0_452_501)">
<path d="M25.3585 25.1712H21.4125V19.0524C21.4125 17.5933 21.3861 15.7151 19.3601 15.7151C17.3048 15.7151 16.9904 17.3048 16.9904 18.9462V25.1708H13.0443V12.5881H16.8326V14.3076H16.8856C17.2647 13.6658 17.8125 13.1378 18.4707 12.7799C19.1289 12.4219 19.8728 12.2475 20.6232 12.2751C24.6227 12.2751 25.3601 14.8799 25.3601 18.2686L25.3585 25.1712ZM8.5919 10.8681C8.13898 10.8682 7.69621 10.7353 7.31959 10.4862C6.94296 10.2371 6.64941 9.88306 6.47601 9.46878C6.30262 9.0545 6.25718 8.59861 6.34546 8.15876C6.43374 7.71891 6.65176 7.31486 6.97196 6.99771C7.29216 6.68055 7.70015 6.46453 8.14434 6.37696C8.58851 6.2894 9.04895 6.33421 9.4674 6.50575C9.8859 6.67729 10.2436 6.96785 10.4953 7.34067C10.747 7.7135 10.8813 8.15185 10.8814 8.60028C10.8815 8.89806 10.8223 9.19289 10.7073 9.468C10.5922 9.74311 10.4236 9.99311 10.211 10.2037C9.9984 10.4143 9.74601 10.5813 9.46817 10.6953C9.19034 10.8093 8.89262 10.8681 8.5919 10.8681ZM10.5649 25.1712H6.61475V12.5881H10.5649V25.1712ZM27.3258 2.70492H4.63187C4.11679 2.69917 3.62044 2.89613 3.25194 3.25252C2.88344 3.60892 2.67294 4.0956 2.66666 4.6056V27.1692C2.67273 27.6794 2.88311 28.1664 3.25159 28.5232C3.62007 28.88 4.11653 29.0773 4.63187 29.0719H27.3258C27.8421 29.0783 28.34 28.8816 28.7099 28.5248C29.0798 28.168 29.2916 27.6804 29.2988 27.1692V4.60398C29.2914 4.09296 29.0795 3.60573 28.7095 3.24934C28.3396 2.89295 27.8419 2.69655 27.3258 2.70329" fill="#353535"/>
</g>
</svg>
