<svg width="96" height="96" viewBox="0 0 96 96" fill="none" xmlns="http://www.w3.org/2000/svg">
<path fill-rule="evenodd" clip-rule="evenodd" d="M48 44.6771L42.4131 45.3829C42.3304 45.3934 42.265 45.4569 42.2537 45.5379L41.1644 53.3597L41.625 45.4214C41.6258 45.4076 41.625 45.3937 41.6226 45.3801L35.0595 8.44983C34.9433 7.79589 33.9592 7.87909 33.9592 8.54286V47.1191L32.5457 48.7626C32.5055 48.8093 32.4921 48.8728 32.5101 48.9313L34.7906 56.3444L31.8558 49.2505C31.842 49.2171 31.8184 49.1886 31.7879 49.1684L27.8626 46.5764L22.8806 45.6299C22.3334 45.526 21.8701 46.0299 22.0331 46.5518L25.0743 56.2897C25.0854 56.3253 25.1075 56.3567 25.1376 56.3796L33.3415 62.6272C33.382 62.658 33.4076 62.7039 33.4121 62.754L33.7723 66.7218C33.7738 66.7376 33.7773 66.7531 33.7828 66.7679L40.745 85.4289C41.0061 86.1286 41.6153 86.6484 42.3589 86.8058L48 88V44.6771ZM37.1923 65.0271L42.6423 69.0971L42.0881 79.86V71.5391L38.3008 68.5544L37.1923 65.0271ZM41.4415 62.6755L42.8271 66.7455L36.8228 62.3138L35.4372 57.882L41.4415 62.6755Z" fill="white"/>
<path fill-rule="evenodd" clip-rule="evenodd" d="M48 44.6771L53.5869 45.3829C53.6696 45.3934 53.735 45.4569 53.7463 45.5379L54.8356 53.3597L54.375 45.4214C54.3742 45.4076 54.375 45.3937 54.3774 45.3801L60.9405 8.44983C61.0567 7.79589 62.0408 7.87909 62.0408 8.54286V47.1191L63.4543 48.7626C63.4945 48.8093 63.5079 48.8728 63.4899 48.9313L61.2094 56.3444L64.1442 49.2505C64.158 49.2171 64.1816 49.1886 64.2121 49.1684L68.1374 46.5764L73.1194 45.6299C73.6666 45.526 74.1299 46.0299 73.9669 46.5518L70.9257 56.2897C70.9146 56.3253 70.8925 56.3567 70.8624 56.3796L62.6585 62.6272C62.618 62.658 62.5924 62.7039 62.5879 62.754L62.2277 66.7218C62.2262 66.7376 62.2227 66.7531 62.2172 66.7679L55.255 85.4289C54.9939 86.1286 54.3847 86.6484 53.6411 86.8058L48 88V44.6771ZM58.8077 65.0271L53.3577 69.0971L53.9119 79.86V71.5391L57.6992 68.5544L58.8077 65.0271ZM54.5585 62.6755L53.1729 66.7455L59.1772 62.3138L60.5628 57.882L54.5585 62.6755Z" fill="white"/>
</svg>
