<svg width="102" height="32" viewBox="0 0 102 32" fill="none" xmlns="http://www.w3.org/2000/svg">
<path d="M13.4265 18.9029V12.1693C13.4265 11.926 13.7028 11.7785 13.9142 11.9089L19.2769 15.2178C19.4845 15.3458 19.7495 15.346 19.9572 15.2181L22.5612 13.6154C22.7578 13.4944 22.758 13.2158 22.5615 13.0946L3.43389 1.2928C1.94563 0.374547 0 1.41321 0 3.12596C0 3.24601 0.0631642 3.35773 0.167451 3.42214L8.94949 8.84598C9.13278 8.95919 9.24379 9.15554 9.24379 9.36654V21.2609C9.24379 21.5042 9.52009 21.6517 9.73146 21.5213L13.1319 19.4236C13.3154 19.3104 13.4265 19.114 13.4265 18.9029Z" fill="#501BC0"/>
<path d="M4.18271 24.8263C4.18271 25.3129 4.73554 25.6079 5.15827 25.3469L23.5285 14.0046C23.6685 13.9182 23.8472 13.918 23.9873 14.0043C25.4462 14.9022 25.447 16.9696 23.9887 17.8685L3.10834 30.74C1.76083 31.5706 0 30.6301 0 29.0798V4.93624C0 4.693 0.276301 4.54548 0.48767 4.67587L3.88812 6.77355C4.07158 6.88672 4.18271 7.08317 4.18271 7.29428V24.8263Z" fill="#501BC0"/>
<path d="M83.6311 22.5459L80.9516 14.425C80.2208 12.2103 78.1418 10.7129 75.7976 10.7129H73.4948L79.3327 26.4012C79.9982 28.1896 81.7133 29.3769 83.6311 29.3769C85.549 29.3769 87.264 28.1896 87.9295 26.4012L93.7675 10.7129H91.4647C89.1204 10.7129 87.0414 12.2103 86.3106 14.425L83.6311 22.5459Z" fill="white"/>
<path d="M101.014 8.12868C102.328 6.8222 102.328 4.84382 101.014 3.57467C99.7005 2.30551 97.6733 2.30551 96.3218 3.57467C95.0453 4.84382 95.0453 6.8222 96.3218 8.12868C97.6733 9.36051 99.7005 9.36051 101.014 8.12868ZM101.465 29.3683V16.0977C101.465 13.119 99.0365 10.7043 96.0407 10.7043H95.8337V23.9749C95.8337 26.9536 98.2623 29.3683 101.258 29.3683H101.465Z" fill="white"/>
<path d="M50.9605 10.5454H47.0936V5.3195H46.7182C43.8155 5.3195 41.4623 7.65922 41.4623 10.5454H38.459V15.9207H41.4623V22.5277C41.4623 25.2527 42.1381 27.1191 43.5272 28.2016C44.9162 29.2467 47.394 29.5827 50.9605 29.2094V24.1328C48.2199 24.2821 47.0936 24.0208 47.0936 22.5277V15.9207H50.9605V10.5454Z" fill="white"/>
<path d="M63.9486 29.3651C62.4705 29.3651 61.091 29.1288 59.8099 28.6563C58.5535 28.1837 57.4573 27.5104 56.5211 26.6362C55.6096 25.762 54.8952 24.7342 54.3779 23.5528C53.8605 22.3479 53.6019 21.0129 53.6019 19.5481V19.4772C53.6019 18.1304 53.8359 16.8546 54.304 15.6496C54.7967 14.4446 55.4741 13.3932 56.3364 12.4954C57.1986 11.5976 58.221 10.8888 59.4034 10.369C60.6106 9.84917 61.9409 9.58928 63.3943 9.58928C65.0449 9.58928 66.4737 9.8728 67.6809 10.4398C68.888 11.0069 69.8857 11.7748 70.674 12.7435C71.487 13.6886 72.0782 14.7872 72.4478 16.0394C72.8419 17.268 73.039 18.5557 73.039 19.9025C73.039 20.1151 73.0267 20.3396 73.002 20.5758C73.002 20.8121 72.9897 21.0602 72.9651 21.3201H59.1817C59.4527 22.5487 60.007 23.4819 60.8446 24.1199C61.7068 24.7342 62.7661 25.0413 64.0225 25.0413C64.9587 25.0413 65.7963 24.8878 66.5353 24.5806C67.9918 23.9753 69.7162 23.8474 70.9168 24.8665L72.0413 25.821C71.1051 26.9315 69.9719 27.8057 68.6416 28.4436C67.3113 29.0579 65.747 29.3651 63.9486 29.3651ZM67.57 17.9532C67.3976 16.7483 66.9541 15.7795 66.2397 15.0471C65.5253 14.291 64.5768 13.913 63.3943 13.913C62.2119 13.913 61.2511 14.2792 60.512 15.0117C59.7976 15.7441 59.3295 16.7246 59.1078 17.9532H67.57Z" fill="white"/>
</svg>
