<svg width="132" height="44" viewBox="0 0 132 44" fill="none" xmlns="http://www.w3.org/2000/svg">
<g clip-path="url(#clip0_517_1348)">
<path d="M23.6036 8.66034H32.5328V1.39685H35.7168V19.9746H32.5328V11.3143H23.6036V19.9746H20.4195V1.39685H23.6036V8.66034Z" fill="white"/>
<path d="M52.1909 15.4349H43.2617L40.9083 19.9746H37.5165L47.8993 0.209473L57.8668 19.9746H54.4059L52.1909 15.4349ZM50.945 12.8507L47.8301 6.56503L44.5768 12.8507H50.945Z" fill="white"/>
<path d="M78.6324 0L71.226 14.4571L64.0965 0L59.6665 19.9746H62.9198L65.204 8.73016L71.1568 20.8127L77.3173 8.73016L79.3938 19.9746H82.5779L78.6324 0Z" fill="white"/>
<path d="M85.5543 19.9746V0.139648L100.713 14.3174V1.39679H103.897V21.092L88.6691 6.98409V19.9746H85.5543Z" fill="white"/>
<path d="M111.788 1.39685H108.673V19.9746H111.788V1.39685Z" fill="white"/>
<mask id="mask0_517_1348" style="mask-type:luminance" maskUnits="userSpaceOnUse" x="0" y="0" width="132" height="44">
<path d="M132 0H0V44H132V0Z" fill="white"/>
</mask>
<g mask="url(#mask0_517_1348)">
<path d="M118.779 1.46673C117.395 1.18736 116.218 2.37466 116.495 3.77149C116.633 4.53974 117.256 5.16831 118.018 5.308C119.402 5.58736 120.579 4.40006 120.302 3.00323C120.164 2.23498 119.541 1.60641 118.779 1.46673Z" fill="white"/>
</g>
<mask id="mask1_517_1348" style="mask-type:luminance" maskUnits="userSpaceOnUse" x="0" y="0" width="132" height="44">
<path d="M132 0H0V44H132V0Z" fill="white"/>
</mask>
<g mask="url(#mask1_517_1348)">
<path d="M131.515 5.72698L129.3 6.91428C128.885 6.28571 128.47 5.86667 128.124 5.65714C127.708 5.44762 127.224 5.30794 126.601 5.30794C125.84 5.30794 125.217 5.51746 124.663 5.86667C124.178 6.21587 123.901 6.70476 123.901 7.33333C123.901 8.10159 124.594 8.8 125.909 9.21905L127.708 9.91746C129.162 10.4762 130.27 11.1048 130.962 11.873C131.654 12.6413 132 13.619 132 14.7365C132 16.2032 131.446 17.4603 130.339 18.4381C129.231 19.4159 127.847 19.9048 126.116 19.9048C124.524 19.9048 123.209 19.4857 122.171 18.6476C121.133 17.8095 120.51 16.6222 120.233 15.0857L123.002 14.527C123.14 15.5048 123.348 16.1333 123.694 16.4825C124.248 17.181 125.078 17.5302 126.186 17.5302C127.016 17.5302 127.778 17.2508 128.331 16.7619C128.885 16.273 129.162 15.5746 129.162 14.8063C129.162 14.4571 129.093 14.1778 129.024 13.9683C128.954 13.6889 128.747 13.4794 128.539 13.2698C128.331 13.0603 128.055 12.8508 127.708 12.6413C127.362 12.4317 127.016 12.2921 126.532 12.0825L124.801 11.454C122.309 10.546 121.063 9.14921 121.063 7.33333C121.063 6.14603 121.617 5.09841 122.656 4.26032C123.694 3.42222 125.009 3.00317 126.601 3.00317C128.747 3.00317 130.339 3.91111 131.515 5.72698Z" fill="white"/>
</g>
<mask id="mask2_517_1348" style="mask-type:luminance" maskUnits="userSpaceOnUse" x="0" y="0" width="132" height="44">
<path d="M132 0H0V44H132V0Z" fill="white"/>
</mask>
<g mask="url(#mask2_517_1348)">
<path d="M17.5123 15.3651C17.097 16.0635 16.6125 16.7619 16.0587 17.3207C15.505 17.8794 14.8128 18.4381 14.1206 18.8572C13.4284 19.2762 12.667 19.6254 11.8364 19.8349C11.0058 20.0445 10.1751 20.1842 9.34452 20.1842C8.02937 20.1842 6.85265 19.9048 5.74515 19.4159C4.56843 18.9969 3.59937 18.2984 2.76875 17.4603C1.93812 16.6222 1.24594 15.5746 0.761405 14.4572C0.276875 13.2699 0 12.0826 0 10.7556C0 9.4286 0.276875 8.24129 0.761405 7.12383C1.24594 6.00637 1.8689 4.95876 2.76875 4.12066C3.59937 3.28256 4.56843 2.58415 5.74515 2.09526C6.85265 1.60637 8.02937 1.39685 9.34452 1.39685C10.2444 1.39685 11.075 1.53653 11.8364 1.74606C12.667 1.95558 13.4284 2.30479 14.1206 2.72383C14.8128 3.14288 15.4358 3.63177 16.0587 4.26034C16.6125 4.81907 17.097 5.51749 17.5123 6.2159L14.259 7.54288C13.9822 7.12384 13.7053 6.77463 13.3592 6.42542C13.0131 6.07622 12.5978 5.79685 12.1825 5.51749C11.7672 5.23812 11.2826 5.0286 10.7981 4.88891C10.3136 4.74923 9.82905 4.67939 9.34452 4.67939C8.5139 4.67939 7.75249 4.81907 7.0603 5.16828C6.36812 5.51749 5.74515 5.93653 5.1914 6.49526C4.63765 7.05399 4.22234 7.75241 3.94546 8.45082C3.59937 9.21907 3.46093 9.98733 3.46093 10.7556C3.46093 11.5937 3.59937 12.3619 3.94546 13.1302C4.29156 13.8984 4.70687 14.527 5.1914 15.0857C5.74515 15.6445 6.36812 16.1334 7.0603 16.4127C7.75249 16.7619 8.5139 16.9016 9.34452 16.9016C9.82905 16.9016 10.3136 16.8318 10.7981 16.6921C11.2826 16.5524 11.698 16.3429 12.1825 16.0635C12.5978 15.7842 13.0131 15.5048 13.3592 15.1556C13.7053 14.8064 14.0514 14.4572 14.259 14.0381L17.5123 15.3651Z" fill="white"/>
</g>
<mask id="mask3_517_1348" style="mask-type:luminance" maskUnits="userSpaceOnUse" x="0" y="0" width="132" height="44">
<path d="M132 0H0V44H132V0Z" fill="white"/>
</mask>
<g mask="url(#mask3_517_1348)">
<path d="M97.0446 28.0762H88.6691V32.546H96.7677V35.2H88.6691V41.4159H97.0446V44H85.5543V25.4921H97.0446V28.0762Z" fill="white"/>
</g>
<mask id="mask4_517_1348" style="mask-type:luminance" maskUnits="userSpaceOnUse" x="0" y="0" width="132" height="44">
<path d="M132 0H0V44H132V0Z" fill="white"/>
</mask>
<g mask="url(#mask4_517_1348)">
<path d="M105.766 36.0381L98.9135 25.4921H102.582L107.289 32.8952L112.065 25.4921H115.734L108.881 36.0381V44H105.766V36.0381Z" fill="white"/>
</g>
<mask id="mask5_517_1348" style="mask-type:luminance" maskUnits="userSpaceOnUse" x="0" y="0" width="132" height="44">
<path d="M132 0H0V44H132V0Z" fill="white"/>
</mask>
<g mask="url(#mask5_517_1348)">
<path d="M129.093 28.0762H120.717V32.546H128.816V35.2H120.717V41.4159H129.093V44H117.603V25.4921H129.093V28.0762Z" fill="white"/>
</g>
</g>
<defs>
<clipPath id="clip0_517_1348">
<rect width="132" height="44" fill="white"/>
</clipPath>
</defs>
</svg>
