<svg width="138" height="30" viewBox="0 0 138 30" fill="none" xmlns="http://www.w3.org/2000/svg">
<g clip-path="url(#clip0_517_1398)">
<path fill-rule="evenodd" clip-rule="evenodd" d="M131.888 1.67304H132.103L132.528 2.34144H132.868L132.406 1.65372C132.465 1.65327 132.523 1.64099 132.576 1.61759C132.63 1.5942 132.678 1.56018 132.719 1.5176C132.759 1.47502 132.79 1.42474 132.81 1.36978C132.831 1.31483 132.84 1.25633 132.837 1.19782C132.837 0.902251 132.663 0.716797 132.311 0.716797H131.599V2.34144H131.888V1.67304ZM131.888 1.41804V0.966001H132.228C132.383 0.966001 132.547 0.981455 132.547 1.1727C132.547 1.41418 132.402 1.41804 132.201 1.41804H131.888Z" fill="#E02E2B"/>
<path fill-rule="evenodd" clip-rule="evenodd" d="M132.172 1.10229e-05C131.871 -0.00113614 131.575 0.0872804 131.324 0.254063C131.073 0.420844 130.876 0.658488 130.76 0.936895C130.644 1.2153 130.613 1.52194 130.671 1.818C130.729 2.11404 130.874 2.38617 131.087 2.59991C131.3 2.81366 131.571 2.95939 131.867 3.01867C132.163 3.07796 132.47 3.04812 132.749 2.93292C133.027 2.81773 133.266 2.62238 133.433 2.3716C133.601 2.12082 133.691 1.8259 133.691 1.52421C133.692 1.32432 133.653 1.12625 133.577 0.941361C133.501 0.75647 133.389 0.588399 133.248 0.446787C133.107 0.305176 132.939 0.192813 132.755 0.116144C132.57 0.0394754 132.372 9.56693e-06 132.172 1.10229e-05ZM132.172 2.76249C131.927 2.76364 131.686 2.69184 131.482 2.55616C131.277 2.42051 131.117 2.22709 131.022 2.00047C130.928 1.77384 130.902 1.5242 130.95 1.28318C130.997 1.04217 131.115 0.820642 131.288 0.646692C131.462 0.47274 131.683 0.354197 131.924 0.30609C132.165 0.257982 132.414 0.282477 132.641 0.376472C132.868 0.470464 133.062 0.629722 133.198 0.834052C133.335 1.03838 133.407 1.27859 133.407 1.52421C133.407 1.85196 133.277 2.16633 133.046 2.39844C132.814 2.63057 132.5 2.76147 132.172 2.76249Z" fill="#E02E2B"/>
<path d="M136.985 28.9142C136.933 28.9356 136.877 28.9466 136.82 28.9463L131.74 28.9386C129.474 28.9521 123.657 28.7415 120.361 26.9546C119.397 26.4314 118.57 25.6881 117.946 24.7851C117.452 24.0608 117.199 23.0079 117.199 21.8874V0.477259C117.198 0.420685 117.209 0.364566 117.23 0.312105C117.251 0.259644 117.283 0.211867 117.322 0.171505C117.362 0.131144 117.409 0.098986 117.461 0.0768687C117.513 0.0547513 117.569 0.0431077 117.626 0.0426025H126.34C126.455 0.0431134 126.565 0.0891328 126.646 0.170592C126.727 0.252051 126.773 0.362314 126.773 0.477259V22.5848C126.758 22.9544 126.868 23.3183 127.084 23.6184C127.354 23.945 127.695 24.2054 128.081 24.3795C129.431 25.046 131.904 25.0904 132.831 25.0904H136.82C136.934 25.0908 137.043 25.1361 137.124 25.2164C137.205 25.2965 137.251 25.4054 137.253 25.5192V28.5174C137.253 28.574 137.241 28.6299 137.219 28.6821C137.197 28.7343 137.166 28.7816 137.125 28.8215C137.085 28.8612 137.038 28.8929 136.985 28.9142Z" fill="#E02E2B"/>
<path d="M20.1294 28.8148C20.2426 28.8144 20.3512 28.7692 20.4315 28.6893C20.5118 28.6095 20.5572 28.5012 20.5583 28.388V3.95829H31.1253C31.239 3.95779 31.3481 3.91251 31.4286 3.83225C31.5093 3.75198 31.555 3.6432 31.5561 3.52944V0.535132C31.555 0.421038 31.509 0.311962 31.428 0.231645C31.3468 0.151326 31.2375 0.106267 31.1233 0.106271H0.434661C0.377786 0.105241 0.321279 0.115587 0.268458 0.136702C0.215639 0.157816 0.16757 0.189274 0.127077 0.229227C0.0865853 0.269179 0.0544853 0.316821 0.0326634 0.369352C0.0108417 0.421885 -0.000262031 0.478248 4.69361e-06 0.535132V3.52944C0.000256833 3.58617 0.011714 3.6423 0.0337184 3.69459C0.0557226 3.74689 0.0878406 3.79432 0.128228 3.83418C0.168615 3.87402 0.216477 3.90551 0.269064 3.92681C0.32165 3.94811 0.377926 3.9588 0.434661 3.95829H10.9804V28.3975C10.9804 28.4539 10.9916 28.5098 11.0133 28.5618C11.035 28.6139 11.0667 28.6611 11.1068 28.7008C11.1469 28.7406 11.1944 28.7719 11.2466 28.7931C11.2989 28.8144 11.3548 28.825 11.4112 28.8244L20.1294 28.8148Z" fill="#E02E2B"/>
<path fill-rule="evenodd" clip-rule="evenodd" d="M58.6472 28.6829C58.5668 28.7633 58.458 28.8086 58.3445 28.809L40.2144 28.8149C37.9484 28.8284 31.9733 28.641 28.6893 27.0318C27.7397 26.5799 26.9112 25.9085 26.2725 25.073C25.7819 24.4161 25.5327 23.4696 25.5327 22.4573V13.9458C25.5327 12.9219 25.7819 11.9753 26.2725 11.3262C26.9099 10.4835 27.74 9.80585 28.6931 9.35001C31.985 7.74081 37.9523 7.56116 40.2183 7.56116H43.9448C46.1991 7.56116 52.1781 7.68479 55.4718 9.29978C56.5382 9.82329 57.3534 10.4299 57.8904 11.1331C59.1095 12.7654 59.0109 15.7926 57.8808 17.3052C57.3495 18.0161 56.5401 18.6072 55.4603 19.1366C52.1684 20.7495 46.1952 20.8635 43.935 20.8635H35.2517V22.4573C35.2376 22.8275 35.3454 23.1918 35.5587 23.4947C35.8263 23.8203 36.1673 24.0779 36.5537 24.2462C37.9136 24.9126 40.3806 24.9648 41.3156 24.9648H58.3445C58.4585 24.9659 58.5677 25.0119 58.6479 25.0929C58.7282 25.1739 58.7733 25.2834 58.7733 25.3976V28.3802C58.7727 28.4939 58.7274 28.6026 58.6472 28.6829ZM48.5946 15.5472C48.8087 15.2462 48.9173 14.8829 48.9036 14.5137L48.9018 13.6773C48.9134 13.3084 48.8049 12.9457 48.5927 12.6437C48.3243 12.3194 47.9835 12.0627 47.5977 11.8942C46.2378 11.22 43.7786 11.1775 42.8378 11.1775H41.3021C40.367 11.1775 37.8981 11.22 36.5459 11.8942C36.1589 12.0633 35.8163 12.3198 35.5452 12.6437C35.3354 12.9464 35.2302 13.3093 35.2458 13.6773V17.0193H42.8397C43.7805 17.0193 46.2474 16.9691 47.5997 16.3026C47.9858 16.1319 48.3264 15.8732 48.5946 15.5472Z" fill="#E02E2B"/>
<path fill-rule="evenodd" clip-rule="evenodd" d="M111.5 11.4691C110.856 10.6404 110.027 9.97411 109.08 9.52382C105.79 7.9069 99.8165 7.72724 97.5563 7.72724H82.691C82.634 7.72622 82.5774 7.73647 82.5245 7.75739C82.4714 7.77832 82.4231 7.8095 82.3821 7.84918C82.3412 7.88885 82.3085 7.93621 82.286 7.98856C82.2633 8.04089 82.2513 8.09717 82.2506 8.15417V11.1581C82.2509 11.2155 82.2624 11.2723 82.2848 11.3252C82.3071 11.3781 82.3397 11.4261 82.3806 11.4663C82.4216 11.5065 82.47 11.5382 82.5234 11.5596C82.5767 11.581 82.6337 11.5916 82.691 11.5909H96.4571C97.3902 11.5909 99.8513 11.6392 101.211 12.3037C101.6 12.4742 101.942 12.7336 102.212 13.061C102.429 13.3607 102.539 13.7247 102.525 14.0945V15.5317H93.8318C91.5735 15.5317 85.5945 15.6457 82.3104 17.2588C81.2345 17.7861 80.4231 18.387 79.8918 19.0939C78.6845 20.709 78.6786 23.7901 79.8918 25.4071C80.4251 26.118 81.2441 26.713 82.3104 27.2424C85.5945 28.8573 91.5677 28.9693 93.8318 28.9693H97.5563C99.8184 28.9693 105.792 28.8013 109.081 27.1806C110.028 26.7252 110.857 26.0568 111.502 25.2274C111.989 24.5688 112.24 23.6221 112.24 22.6041V14.1022C112.24 13.0822 111.989 12.1337 111.502 11.4788L111.5 11.4691ZM102.535 22.8667C102.547 23.2359 102.437 23.5987 102.222 23.8984C101.956 24.2269 101.615 24.4873 101.229 24.6576C99.8763 25.3201 97.3998 25.3704 96.4686 25.3704H94.9386C93.996 25.3704 91.5329 25.3201 90.1749 24.6576C89.7867 24.484 89.4432 24.2244 89.1704 23.8984C88.9611 23.596 88.8548 23.2342 88.8671 22.8667V21.8874C88.8554 21.5181 88.9616 21.1548 89.1704 20.85C89.445 20.5269 89.7881 20.2689 90.1749 20.0946C91.5272 19.4301 93.996 19.3837 94.9386 19.3837H102.535V22.8667Z" fill="#E02E2B"/>
<path d="M62.8872 28.5611C62.8657 28.5092 62.8549 28.4536 62.8552 28.3975V7.36981C62.8552 5.97311 63.114 4.928 63.6028 4.19777C64.224 3.29219 65.0533 2.5489 66.0214 2.03029C69.3093 0.235639 75.2824 0.0289354 77.5465 0.0424581H82.465C82.5798 0.0424581 82.6897 0.0880485 82.7709 0.169201C82.852 0.250352 82.8976 0.360418 82.8976 0.475183V3.46562C82.8976 3.58039 82.852 3.69046 82.7709 3.77161C82.6897 3.85276 82.5798 3.89834 82.465 3.89834H78.6457C77.7069 3.89834 75.072 3.94664 73.7197 4.6131C73.3326 4.78199 72.9909 5.04017 72.7228 5.36651C72.5086 5.66872 72.402 6.03394 72.4195 6.4039V7.72718H77.7417C77.8558 7.72922 77.9644 7.77623 78.0441 7.858C78.1236 7.93978 78.1677 8.04967 78.1666 8.16377V11.1561C78.1666 11.2711 78.1212 11.3813 78.04 11.4628C77.959 11.5443 77.8489 11.5903 77.734 11.5908H72.4119V28.3975C72.4102 28.5119 72.3634 28.6211 72.2817 28.7011C72.1998 28.7812 72.0897 28.8254 71.9752 28.8244H63.2821C63.226 28.8247 63.1704 28.8139 63.1185 28.7924C63.0664 28.7711 63.0193 28.7396 62.9796 28.7C62.94 28.6603 62.9085 28.613 62.8872 28.5611Z" fill="#E02E2B"/>
</g>
<defs>
<clipPath id="clip0_517_1398">
<rect width="138" height="30" fill="white"/>
</clipPath>
</defs>
</svg>
