<svg width="32" height="32" viewBox="0 0 32 32" fill="none" xmlns="http://www.w3.org/2000/svg">
<mask id="mask0_452_489" style="mask-type:luminance" maskUnits="userSpaceOnUse" x="3" y="2" width="25" height="28">
<path d="M28 2.66675H3.7576V29.3334H28V2.66675Z" fill="white"/>
</mask>
<g mask="url(#mask0_452_489)">
<path d="M24.375 8.01521C22.4906 6.83508 21.3487 4.82662 21.3487 2.66675H16.568L16.5587 21.0457C16.4752 23.1699 14.6094 24.831 12.3954 24.7464C10.1814 24.6663 8.45012 22.876 8.53831 20.7518C8.62186 18.681 10.3949 17.0466 12.5532 17.0466C12.957 17.0466 13.3561 17.1089 13.7367 17.2247V12.5398C13.3422 12.4864 12.9477 12.4597 12.5532 12.4552C7.70285 12.4552 3.7576 16.2406 3.7576 20.8943C3.76688 25.5525 7.6982 29.3289 12.5578 29.3334C17.4081 29.3334 21.3534 25.548 21.3534 20.8943V11.5779C23.2889 12.9139 25.6143 13.6353 28 13.6309V9.04396C26.7097 9.0484 25.4518 8.68768 24.375 8.01521Z" fill="#353535"/>
</g>
</svg>
