<svg width="22" height="24" viewBox="0 0 22 24" fill="none" xmlns="http://www.w3.org/2000/svg">
<mask id="mask0_521_1153" style="mask-type:luminance" maskUnits="userSpaceOnUse" x="0" y="0" width="22" height="24">
<path d="M21.5002 0.333496H0.288086V23.6668H21.5002V0.333496Z" fill="white"/>
</mask>
<g mask="url(#mask0_521_1153)">
<path d="M18.3283 5.0134C16.6794 3.98079 15.6803 2.22339 15.6803 0.333496H11.4972L11.4891 16.4151C11.416 18.2738 9.78337 19.7273 7.84613 19.6532C5.90888 19.5831 4.39404 18.0166 4.47121 16.1579C4.54431 14.346 6.09574 12.9159 7.98423 12.9159C8.33754 12.9159 8.68681 12.9704 9.01984 13.0717V8.97241C8.67465 8.92569 8.32942 8.90231 7.98423 8.89837C3.74018 8.89837 0.288086 12.2106 0.288086 16.2826C0.296208 20.3585 3.73611 23.6629 7.98827 23.6668C12.2323 23.6668 15.6844 20.3546 15.6844 16.2826V8.13075C17.378 9.29975 19.4127 9.93102 21.5002 9.92713V5.91356C20.3711 5.91745 19.2705 5.60181 18.3283 5.0134Z" fill="#4F7471"/>
</g>
</svg>
