<svg width="32" height="32" viewBox="0 0 32 32" fill="none" xmlns="http://www.w3.org/2000/svg">
<mask id="mask0_452_495" style="mask-type:luminance" maskUnits="userSpaceOnUse" x="2" y="2" width="28" height="28">
<path d="M29.3333 2.66675H2.66666V29.3334H29.3333V2.66675Z" fill="white"/>
</mask>
<g mask="url(#mask0_452_495)">
<path d="M10.4779 2.76C9.05924 2.82693 8.09041 3.05333 7.24348 3.38613C6.36695 3.72773 5.62401 4.18613 4.88481 4.928C4.14561 5.66986 3.69041 6.41333 3.35121 7.2912C3.02294 8.14 2.80054 9.10962 2.73788 10.5291C2.67521 11.9485 2.66134 12.4048 2.66828 16.0256C2.67521 19.6464 2.69121 20.1003 2.76001 21.5227C2.82774 22.9411 3.05334 23.9096 3.38615 24.7568C3.72828 25.6333 4.18615 26.376 4.92828 27.1155C5.67041 27.855 6.41335 28.3091 7.29335 28.6488C8.14135 28.9765 9.11124 29.2 10.5304 29.2621C11.9496 29.3243 12.4064 29.3387 16.0261 29.3317C19.6459 29.3248 20.1016 29.3088 21.5237 29.2413C22.9459 29.1738 23.9093 28.9467 24.7568 28.6155C25.6333 28.2725 26.3766 27.8155 27.1155 27.0731C27.8544 26.3307 28.3093 25.5867 28.6483 24.7083C28.9768 23.8603 29.2 22.8904 29.2616 21.4723C29.3237 20.0491 29.3384 19.5947 29.3315 15.9744C29.3246 12.3541 29.3083 11.9003 29.2408 10.4784C29.1733 9.05651 28.9475 8.09093 28.615 7.2432C28.2723 6.36666 27.815 5.62453 27.0731 4.88453C26.3312 4.14453 25.5867 3.68986 24.7086 3.35173C23.86 3.02346 22.8907 2.79973 21.4715 2.7384C20.0523 2.67706 19.5955 2.66133 15.9744 2.66826C12.3533 2.6752 11.9 2.69066 10.4779 2.76ZM10.6336 26.8635C9.33362 26.807 8.62774 26.591 8.15735 26.4101C7.53441 26.1701 7.09068 25.88 6.62188 25.4157C6.15308 24.9515 5.86508 24.5061 5.62188 23.8845C5.43921 23.4141 5.21921 22.7091 5.15841 21.4091C5.09228 20.004 5.07841 19.5821 5.07068 16.0224C5.06295 12.4627 5.07655 12.0413 5.13815 10.6357C5.19361 9.33679 5.41095 8.63013 5.59148 8.16C5.83148 7.53626 6.12055 7.09333 6.58588 6.6248C7.05121 6.15626 7.49521 5.86773 8.11735 5.62453C8.58723 5.44106 9.29229 5.22293 10.5917 5.16106C11.9979 5.0944 12.4192 5.08106 15.9784 5.07333C19.5376 5.0656 19.96 5.07893 21.3667 5.1408C22.6656 5.19733 23.3726 5.41253 23.8421 5.59413C24.4653 5.83413 24.9088 6.1224 25.3773 6.58853C25.8459 7.05466 26.1347 7.49706 26.3779 8.12053C26.5616 8.58907 26.7797 9.29385 26.8411 10.5941C26.908 12.0003 26.9232 12.4218 26.9296 15.9808C26.936 19.5397 26.9235 19.9624 26.8619 21.3675C26.8051 22.6675 26.5896 23.3736 26.4086 23.8445C26.1686 24.4672 25.8792 24.9112 25.4136 25.3795C24.948 25.8477 24.5046 26.1363 23.8821 26.3795C23.4128 26.5627 22.707 26.7813 21.4086 26.8432C20.0024 26.9093 19.5811 26.9232 16.0206 26.931C12.46 26.9387 12.0397 26.9243 10.6336 26.8635ZM21.5032 8.87385C21.5037 9.19035 21.5981 9.49957 21.7744 9.7624C21.9506 10.0252 22.2009 10.2299 22.4935 10.3505C22.7861 10.4711 23.1079 10.5022 23.4182 10.4399C23.7285 10.3776 24.0133 10.2247 24.2366 10.0005C24.46 9.77629 24.6119 9.4909 24.6731 9.1804C24.7342 8.8699 24.7019 8.54824 24.5802 8.25607C24.4586 7.96392 24.253 7.71441 23.9895 7.53911C23.726 7.3638 23.4165 7.27056 23.1 7.2712C22.6757 7.27205 22.2692 7.44136 21.9698 7.7419C21.6703 8.04244 21.5025 8.44963 21.5032 8.87385ZM9.1539 16.0133C9.16135 19.7947 12.2323 22.8531 16.0128 22.8458C19.7933 22.8387 22.8539 19.768 22.8467 15.9867C22.8395 12.2053 19.7677 9.14613 15.9867 9.15363C12.2056 9.16107 9.14668 12.2325 9.1539 16.0133ZM11.5555 16.0085C11.5537 15.1295 11.8127 14.2697 12.2996 13.5378C12.7866 12.806 13.4796 12.2349 14.291 11.8969C15.1025 11.5589 15.996 11.4691 16.8585 11.6389C17.721 11.8087 18.5137 12.2304 19.1365 12.8508C19.7593 13.4711 20.1842 14.2622 20.3574 15.124C20.5306 15.9858 20.4443 16.8797 20.1096 17.6925C19.7748 18.5052 19.2065 19.2005 18.4766 19.6903C17.7466 20.1802 16.8878 20.4425 16.0088 20.4443C15.4251 20.4455 14.8469 20.3317 14.3072 20.1095C13.7675 19.8872 13.2768 19.5608 12.8633 19.1488C12.4498 18.737 12.1214 18.2476 11.897 17.7088C11.6726 17.17 11.5566 16.5922 11.5555 16.0085Z" fill="#353535"/>
</g>
</svg>
