<svg width="24" height="24" viewBox="0 0 24 24" fill="none" xmlns="http://www.w3.org/2000/svg">
<mask id="mask0_521_60" style="mask-type:luminance" maskUnits="userSpaceOnUse" x="0" y="0" width="24" height="24">
<path d="M23.6663 0.333496H0.333008V23.6668H23.6663V0.333496Z" fill="white"/>
</mask>
<g mask="url(#mask0_521_60)">
<path d="M20.1884 20.0248H16.7356V14.6709C16.7356 13.3942 16.7125 11.7507 14.9398 11.7507C13.1414 11.7507 12.8663 13.1417 12.8663 14.5779V20.0245H9.41348V9.01455H12.7282V10.5192H12.7746C13.1063 9.95761 13.5856 9.49561 14.1616 9.1824C14.7375 8.8692 15.3884 8.71656 16.045 8.74067C19.5446 8.74067 20.1898 11.0199 20.1898 13.985L20.1884 20.0248ZM5.51759 7.5096C5.12129 7.50965 4.73387 7.39337 4.40432 7.1754C4.07478 6.95747 3.81792 6.64767 3.6662 6.28518C3.51447 5.92269 3.47472 5.52379 3.55196 5.13891C3.6292 4.75404 3.81998 4.4005 4.10015 4.12299C4.38032 3.84548 4.73731 3.65646 5.12598 3.57984C5.51463 3.50322 5.91752 3.54244 6.28366 3.69253C6.64984 3.84263 6.9628 4.09686 7.18306 4.42308C7.40327 4.74931 7.52086 5.13286 7.52091 5.52524C7.52095 5.7858 7.46918 6.04378 7.36856 6.2845C7.26788 6.52522 7.12035 6.74397 6.93432 6.92826C6.74828 7.11249 6.52744 7.25867 6.28434 7.35842C6.04123 7.45817 5.78072 7.50955 5.51759 7.5096ZM7.24397 20.0248H3.78759V9.01455H7.24397V20.0248ZM21.9097 0.366806H2.05257C1.60187 0.36177 1.16757 0.534111 0.845132 0.845958C0.522697 1.15781 0.338508 1.58365 0.333008 2.0299V21.7731C0.33832 22.2195 0.522401 22.6456 0.844826 22.9578C1.16725 23.27 1.60165 23.4427 2.05257 23.4379H21.9097C22.3615 23.4435 22.7971 23.2714 23.1208 22.9592C23.4445 22.647 23.6298 22.2204 23.6361 21.7731V2.02848C23.6297 1.58134 23.4443 1.15501 23.1205 0.843173C22.7968 0.531333 22.3613 0.359484 21.9097 0.365381" fill="#4F7471"/>
</g>
</svg>
