<svg width="28" height="28" viewBox="0 0 28 28" fill="none" xmlns="http://www.w3.org/2000/svg">
<g clip-path="url(#clip0_356_8316)">
<mask id="mask0_356_8316" style="mask-type:luminance" maskUnits="userSpaceOnUse" x="0" y="0" width="28" height="28">
<path d="M28 0H0V28H28V0Z" fill="white"/>
</mask>
<g mask="url(#mask0_356_8316)">
<path d="M13.9997 2.3335C20.443 2.3335 25.6663 7.55683 25.6663 14.0002C25.6663 19.8233 21.4 24.6499 15.8226 25.5251C15.8226 25.5251 15.8226 25.5251 15.8226 25.5251L15.8226 17.3726H18.541L19.0583 14.0002H15.8226V11.8117C15.8226 11.336 15.9428 10.8664 16.2579 10.5232C16.3247 10.4504 16.4003 10.3833 16.4854 10.323C16.7771 10.1162 17.1804 9.98977 17.7239 9.98977H19.195L19.195 7.11865C19.195 7.11865 17.8599 6.89079 16.5835 6.89079C15.572 6.89079 14.6936 7.12343 13.9929 7.57198C12.8473 8.30529 12.1768 9.61564 12.1768 11.4299V14.0002H9.21452V17.3726L12.1768 17.3726V25.5251C6.59934 24.6499 2.33301 19.8233 2.33301 14.0002C2.33301 7.55683 7.55637 2.3335 13.9997 2.3335Z" fill="#4F7471"/>
</g>
</g>
<defs>
<clipPath id="clip0_356_8316">
<rect width="28" height="28" fill="white"/>
</clipPath>
</defs>
</svg>
