<svg width="24" height="24" viewBox="0 0 24 24" fill="none" xmlns="http://www.w3.org/2000/svg">
<mask id="mask0_521_1143" style="mask-type:luminance" maskUnits="userSpaceOnUse" x="0" y="0" width="24" height="24">
<path d="M23.6663 0.333496H0.333008V23.6668H23.6663V0.333496Z" fill="white"/>
</mask>
<g mask="url(#mask0_521_1143)">
<path d="M7.16785 0.41509C5.92651 0.473656 5.07879 0.671756 4.33773 0.962956C3.57076 1.26186 2.92069 1.66296 2.27389 2.31209C1.62709 2.96122 1.22879 3.61176 0.931994 4.37989C0.64476 5.12259 0.45016 5.97101 0.395327 7.21303C0.340493 8.45504 0.32836 8.85428 0.334427 12.0225C0.340493 15.1907 0.354493 15.5878 0.414693 16.8324C0.47396 18.0735 0.67136 18.921 0.962561 19.6623C1.26193 20.4293 1.66256 21.0791 2.31193 21.7261C2.96129 22.3732 3.61136 22.7705 4.38136 23.0678C5.12336 23.3545 5.97201 23.5501 7.21379 23.6045C8.4556 23.6588 8.85528 23.6714 12.0225 23.6654C15.1898 23.6593 15.5886 23.6453 16.833 23.5863C18.0773 23.5272 18.9204 23.3284 19.6619 23.0386C20.4289 22.7385 21.0792 22.3386 21.7257 21.689C22.3723 21.0394 22.7704 20.3884 23.0669 19.6198C23.3544 18.8778 23.5497 18.0292 23.6036 16.7883C23.658 15.543 23.6708 15.1454 23.6647 11.9777C23.6587 8.80995 23.6444 8.41285 23.5854 7.16869C23.5264 5.92454 23.3287 5.07966 23.0378 4.33789C22.7379 3.57092 22.3378 2.92156 21.6886 2.27406C21.0395 1.62656 20.388 1.22872 19.6197 0.932856C18.8772 0.645623 18.029 0.449856 16.7872 0.39619C15.5454 0.342523 15.1457 0.328757 11.9773 0.334823C8.80886 0.34089 8.41219 0.354423 7.16785 0.41509ZM7.3041 21.5056C6.1666 21.4562 5.54895 21.2672 5.13736 21.109C4.59229 20.899 4.20403 20.6451 3.79383 20.2389C3.38363 19.8326 3.13163 19.443 2.91883 18.899C2.75899 18.4875 2.56649 17.8705 2.51329 16.733C2.45543 15.5036 2.44329 15.1345 2.43653 12.0197C2.42976 8.90494 2.44166 8.53627 2.49556 7.30636C2.54409 6.16978 2.73426 5.55145 2.89223 5.14009C3.10223 4.59432 3.35516 4.20676 3.76233 3.79679C4.16949 3.38682 4.55799 3.13436 5.10236 2.92156C5.51351 2.76102 6.13044 2.57016 7.26745 2.51602C8.49785 2.45769 8.86651 2.44602 11.9808 2.43926C15.0951 2.43249 15.4647 2.44416 16.6955 2.49829C17.8321 2.54776 18.4507 2.73606 18.8615 2.89496C19.4069 3.10496 19.7949 3.35719 20.2049 3.76506C20.6148 4.17292 20.8675 4.56002 21.0803 5.10556C21.2411 5.51553 21.432 6.13221 21.4856 7.26995C21.5442 8.50035 21.5575 8.86921 21.5631 11.9833C21.5687 15.0974 21.5577 15.4672 21.5038 16.6966C21.4541 17.8341 21.2656 18.452 21.1072 18.864C20.8972 19.4089 20.644 19.7974 20.2366 20.2071C19.8292 20.6169 19.4412 20.8693 18.8965 21.0821C18.4859 21.2424 17.8683 21.4338 16.7322 21.4879C15.5018 21.5458 15.1331 21.5579 12.0177 21.5647C8.90219 21.5714 8.53445 21.5588 7.3041 21.5056ZM16.815 5.76471C16.8155 6.04165 16.898 6.31221 17.0523 6.54219C17.2065 6.77217 17.4255 6.95126 17.6815 7.05674C17.9375 7.16228 18.2191 7.1895 18.4906 7.13501C18.7621 7.08046 19.0113 6.94669 19.2067 6.75054C19.4022 6.55435 19.5351 6.30463 19.5886 6.03294C19.6421 5.76126 19.6138 5.4798 19.5074 5.22415C19.4009 4.96852 19.2211 4.7502 18.9905 4.59681C18.7599 4.44341 18.4891 4.36184 18.2122 4.36239C17.841 4.36313 17.4853 4.51128 17.2233 4.77426C16.9612 5.03723 16.8144 5.39351 16.815 5.76471ZM6.00935 12.0118C6.01586 15.3204 8.70294 17.9965 12.0109 17.9902C15.3189 17.9839 17.9968 15.2971 17.9905 11.9884C17.9842 8.67977 15.2965 6.00295 11.988 6.00951C8.6796 6.01603 6.00303 8.70354 6.00935 12.0118ZM8.11071 12.0075C8.1092 11.2384 8.33578 10.4861 8.76185 9.84566C9.18793 9.20531 9.7943 8.70563 10.5043 8.40988C11.2144 8.11413 11.9961 8.03558 12.7508 8.18413C13.5055 8.33269 14.1992 8.70169 14.7441 9.24453C15.2891 9.78733 15.6609 10.4795 15.8124 11.2336C15.964 11.9877 15.8885 12.7698 15.5956 13.481C15.3026 14.1922 14.8054 14.8005 14.1667 15.2291C13.528 15.6577 12.7765 15.8873 12.0074 15.8888C11.4967 15.8899 10.9907 15.7904 10.5185 15.5959C10.0463 15.4014 9.61692 15.1158 9.25506 14.7553C8.89325 14.3949 8.60591 13.9668 8.40957 13.4953C8.21323 13.0238 8.11168 12.5183 8.11071 12.0075Z" fill="#4F7471"/>
</g>
</svg>
